# This file uses centimeters as units for non-parametric coordinates.

mtllib atril.mtl
g default
v -0.524471 1.004575 -40.154510
v -0.595491 1.004575 -40.293892
v -0.706107 1.004575 -40.404510
v -0.845491 1.004575 -40.475529
v -1.000000 1.004575 -40.500000
v -1.154509 1.004575 -40.475529
v -1.293893 1.004575 -40.404510
v -1.404509 1.004575 -40.293892
v -1.475528 1.004575 -40.154510
v -1.500000 1.004575 -40.000000
v -1.475528 1.004575 -39.845493
v -1.404509 1.004575 -39.706108
v -1.293893 1.004575 -39.595493
v -1.154509 1.004575 -39.524471
v -1.000000 1.004575 -39.500000
v -0.845492 1.004575 -39.524471
v -0.706107 1.004575 -39.595493
v -0.595491 1.004575 -39.706108
v -0.524472 1.004575 -39.845493
v -0.500000 1.004575 -40.000000
v -0.524471 1.104575 -40.154510
v -0.595491 1.104575 -40.293892
v -0.706107 1.104575 -40.404510
v -0.845491 1.104575 -40.475529
v -1.000000 1.104575 -40.500000
v -1.154509 1.104575 -40.475529
v -1.293893 1.104575 -40.404510
v -1.404509 1.104575 -40.293892
v -1.475528 1.104575 -40.154510
v -1.500000 1.104575 -40.000000
v -1.475528 1.104575 -39.845493
v -1.404509 1.104575 -39.706108
v -1.293893 1.104575 -39.595493
v -1.154509 1.104575 -39.524471
v -1.000000 1.104575 -39.500000
v -0.845492 1.104575 -39.524471
v -0.706107 1.104575 -39.595493
v -0.595491 1.104575 -39.706108
v -0.524472 1.104575 -39.845493
v -0.500000 1.104575 -40.000000
v -1.000000 1.004575 -40.000000
v -1.000000 1.104575 -40.000000
v -0.904894 1.054575 -40.030903
v -0.919098 1.054575 -40.058781
v -0.941221 1.054575 -40.080902
v -0.969098 1.054575 -40.095104
v -1.000000 1.054575 -40.099998
v -1.030902 1.054575 -40.095104
v -1.058779 1.054575 -40.080902
v -1.080902 1.054575 -40.058781
v -1.095106 1.054575 -40.030903
v -1.100000 1.054575 -40.000000
v -1.095106 1.054575 -39.969097
v -1.080902 1.054575 -39.941223
v -1.058779 1.054575 -39.919098
v -1.030902 1.054575 -39.904896
v -1.000000 1.054575 -39.900002
v -0.969098 1.054575 -39.904896
v -0.941221 1.054575 -39.919098
v -0.919098 1.054575 -39.941223
v -0.904894 1.054575 -39.969097
v -0.900000 1.054575 -40.000000
v -1.000000 1.054575 -40.000000
v -0.919098 2.948866 -40.058781
v -0.904894 2.963989 -40.030903
v -0.941221 2.937631 -40.080902
v -0.969098 2.931386 -40.095104
v -1.000000 2.930741 -40.099998
v -1.030902 2.935758 -40.095104
v -1.058779 2.945948 -40.080902
v -1.080902 2.960313 -40.058781
v -1.095106 2.977446 -40.030903
v -1.100000 2.995671 -40.000000
v -1.095106 3.013203 -39.969097
v -1.080902 3.028326 -39.941223
v -1.058779 3.039560 -39.919098
v -1.030902 3.045805 -39.904896
v -1.000000 3.046451 -39.900002
v -0.969098 3.041433 -39.904896
v -0.941221 3.031243 -39.919098
v -0.919098 3.016879 -39.941223
v -0.904894 2.999745 -39.969097
v -0.900000 2.981521 -40.000000
vt 0.284850 0.008705
vt 0.311303 0.008632
vt 0.311781 0.181594
vt 0.285327 0.181667
vt 0.332297 0.008574
vt 0.332774 0.181536
vt 0.345775 0.008537
vt 0.346253 0.181499
vt 0.350420 0.008524
vt 0.350897 0.181486
vt 0.345775 0.008537
vt 0.346253 0.181499
vt 0.332297 0.008574
vt 0.332774 0.181536
vt 0.311303 0.008632
vt 0.311781 0.181594
vt 0.284850 0.008705
vt 0.285327 0.181667
vt 0.255526 0.008786
vt 0.256003 0.181748
vt 0.226202 0.008867
vt 0.226679 0.181829
vt 0.199749 0.008940
vt 0.200226 0.181902
vt 0.178755 0.008998
vt 0.179233 0.181960
vt 0.165276 0.009035
vt 0.165754 0.181997
vt 0.160632 0.009048
vt 0.161109 0.182010
vt 0.165276 0.009035
vt 0.165754 0.181997
vt 0.178755 0.008998
vt 0.179233 0.181960
vt 0.199749 0.008940
vt 0.200226 0.181902
vt 0.226202 0.008867
vt 0.226679 0.181829
vt 0.255526 0.008786
vt 0.256003 0.181748
vt 0.255526 0.008786
vt 0.256003 0.181748
vt 0.285976 0.010817
vt 0.286051 0.017355
vt 0.041155 0.018977
vt 0.039125 0.012452
vt 0.286126 0.023893
vt 0.042683 0.025506
vt 0.286202 0.030431
vt 0.043566 0.032038
vt 0.286277 0.036969
vt 0.043724 0.038576
vt 0.286352 0.043507
vt 0.043151 0.045118
vt 0.286427 0.050045
vt 0.041909 0.051664
vt 0.286503 0.056582
vt 0.040127 0.058215
vt 0.286578 0.063120
vt 0.037987 0.064767
vt 0.286653 0.069658
vt 0.035707 0.071321
vt 0.286729 0.076196
vt 0.033515 0.077874
vt 0.286804 0.082734
vt 0.031635 0.084425
vt 0.286879 0.089272
vt 0.030258 0.090972
vt 0.286954 0.095810
vt 0.029526 0.097516
vt 0.287030 0.102348
vt 0.029518 0.104054
vt 0.287105 0.108886
vt 0.030242 0.110588
vt 0.287180 0.115424
vt 0.031635 0.117117
vt 0.287255 0.121962
vt 0.033567 0.123643
vt 0.287331 0.128500
vt 0.035857 0.130166
vt 0.287406 0.135038
vt 0.038289 0.136688
vt 0.287481 0.141576
vt 0.040630 0.143211
vt 0.626409 0.064408
vt 0.648603 0.107966
vt 0.500000 0.156250
vt 0.591842 0.029841
vt 0.548284 0.007647
vt 0.500000 -0.000000
vt 0.451716 0.007647
vt 0.408159 0.029841
vt 0.373591 0.064409
vt 0.351397 0.107966
vt 0.343750 0.156250
vt 0.351397 0.204534
vt 0.373591 0.248091
vt 0.408159 0.282659
vt 0.451716 0.304853
vt 0.500000 0.312500
vt 0.548284 0.304853
vt 0.591841 0.282659
vt 0.626409 0.248091
vt 0.648603 0.204534
vt 0.656250 0.156250
vn 0.951057 0.000000 -0.309016
vn 0.809017 0.000000 -0.587785
vn 0.809017 0.000000 -0.587785
vn 0.951057 0.000000 -0.309016
vn 0.809017 0.000000 -0.587785
vn 0.587785 0.000000 -0.809017
vn 0.587785 0.000000 -0.809017
vn 0.809017 0.000000 -0.587785
vn 0.587785 0.000000 -0.809017
vn 0.309017 0.000000 -0.951057
vn 0.309017 0.000000 -0.951057
vn 0.587785 0.000000 -0.809017
vn 0.309017 0.000000 -0.951057
vn 0.000000 0.000000 -1.000000
vn 0.000000 0.000000 -1.000000
vn 0.309017 0.000000 -0.951057
vn 0.000000 0.000000 -1.000000
vn -0.309017 0.000000 -0.951056
vn -0.309017 0.000000 -0.951056
vn 0.000000 0.000000 -1.000000
vn -0.309017 0.000000 -0.951056
vn -0.587785 0.000000 -0.809017
vn -0.587785 0.000000 -0.809017
vn -0.309017 0.000000 -0.951056
vn -0.587785 0.000000 -0.809017
vn -0.809017 0.000000 -0.587785
vn -0.809017 0.000000 -0.587785
vn -0.587785 0.000000 -0.809017
vn -0.809017 0.000000 -0.587785
vn -0.951057 0.000000 -0.309017
vn -0.951057 0.000000 -0.309017
vn -0.809017 0.000000 -0.587785
vn -0.951057 0.000000 -0.309017
vn -1.000000 0.000000 0.000000
vn -1.000000 0.000000 0.000000
vn -0.951057 0.000000 -0.309017
vn -1.000000 0.000000 0.000000
vn -0.951057 0.000000 0.309017
vn -0.951057 0.000000 0.309017
vn -1.000000 0.000000 0.000000
vn -0.951057 0.000000 0.309017
vn -0.809017 0.000000 0.587785
vn -0.809017 0.000000 0.587785
vn -0.951057 0.000000 0.309017
vn -0.809017 0.000000 0.587785
vn -0.587785 0.000000 0.809017
vn -0.587785 0.000000 0.809017
vn -0.809017 0.000000 0.587785
vn -0.587785 0.000000 0.809017
vn -0.309017 0.000000 0.951057
vn -0.309017 0.000000 0.951057
vn -0.587785 0.000000 0.809017
vn -0.309017 0.000000 0.951057
vn 0.000000 0.000000 1.000000
vn 0.000000 0.000000 1.000000
vn -0.309017 0.000000 0.951057
vn 0.000000 0.000000 1.000000
vn 0.309017 0.000000 0.951057
vn 0.309017 0.000000 0.951057
vn 0.000000 0.000000 1.000000
vn 0.309017 0.000000 0.951057
vn 0.587785 0.000000 0.809017
vn 0.587785 0.000000 0.809017
vn 0.309017 0.000000 0.951057
vn 0.587785 0.000000 0.809017
vn 0.809017 0.000000 0.587785
vn 0.809017 0.000000 0.587785
vn 0.587785 0.000000 0.809017
vn 0.809017 0.000000 0.587785
vn 0.951057 0.000000 0.309017
vn 0.951057 0.000000 0.309017
vn 0.809017 0.000000 0.587785
vn 0.951057 0.000000 0.309017
vn 1.000000 0.000000 0.000001
vn 1.000000 0.000000 0.000001
vn 0.951057 0.000000 0.309017
vn 1.000000 0.000000 0.000001
vn 0.951057 0.000000 -0.309016
vn 0.951057 0.000000 -0.309016
vn 1.000000 0.000000 0.000001
vn 0.000000 -1.000000 0.000000
vn 0.000000 -1.000000 0.000000
vn 0.000000 -1.000000 0.000000
vn 0.000000 -1.000000 0.000000
vn 0.000000 -1.000000 0.000000
vn 0.000000 -1.000000 0.000000
vn 0.000000 -1.000000 0.000000
vn 0.000000 -1.000000 0.000000
vn 0.000000 -1.000000 0.000000
vn 0.000000 -1.000000 0.000000
vn 0.000000 -1.000000 0.000000
vn 0.000000 -1.000000 0.000000
vn 0.000000 -1.000000 0.000000
vn 0.000000 -1.000000 0.000000
vn 0.000000 -1.000000 0.000000
vn 0.000000 -1.000000 0.000000
vn 0.000000 -1.000000 0.000000
vn 0.000000 -1.000000 0.000000
vn 0.000000 -1.000000 0.000000
vn 0.000000 -1.000000 0.000000
vn 0.000000 -1.000000 0.000000
vn 0.000000 -1.000000 0.000000
vn 0.000000 -1.000000 0.000000
vn 0.000000 -1.000000 0.000000
vn 0.000000 -1.000000 0.000000
vn 0.000000 -1.000000 0.000000
vn 0.000000 -1.000000 0.000000
vn 0.000000 -1.000000 0.000000
vn 0.000000 -1.000000 0.000000
vn 0.000000 -1.000000 0.000000
vn 0.000000 -1.000000 0.000000
vn 0.000000 -1.000000 0.000000
vn 0.000000 -1.000000 0.000000
vn 0.000000 -1.000000 0.000000
vn 0.000000 -1.000000 0.000000
vn 0.000000 -1.000000 0.000000
vn 0.000000 -1.000000 0.000000
vn 0.000000 -1.000000 0.000000
vn 0.000000 -1.000000 0.000000
vn 0.000000 -1.000000 0.000000
vn 0.000000 -1.000000 0.000000
vn 0.000000 -1.000000 0.000000
vn 0.000000 -1.000000 0.000000
vn 0.000000 -1.000000 0.000000
vn 0.000000 -1.000000 0.000000
vn 0.000000 -1.000000 0.000000
vn 0.000000 -1.000000 0.000000
vn 0.000000 -1.000000 0.000000
vn 0.000000 -1.000000 0.000000
vn 0.000000 -1.000000 0.000000
vn 0.000000 -1.000000 0.000000
vn 0.000000 -1.000000 0.000000
vn 0.000000 -1.000000 0.000000
vn 0.000000 -1.000000 0.000000
vn 0.000000 -1.000000 0.000000
vn 0.000000 -1.000000 0.000000
vn 0.000000 -1.000000 0.000000
vn 0.000000 -1.000000 0.000000
vn 0.000000 -1.000000 0.000000
vn 0.000000 -1.000000 0.000000
vn 0.000000 1.000000 0.000000
vn 0.000000 1.000000 0.000000
vn 0.000000 1.000000 0.000000
vn 0.000000 1.000000 0.000000
vn 0.000000 1.000000 0.000000
vn 0.000000 1.000000 0.000000
vn 0.000000 1.000000 0.000000
vn 0.000000 1.000000 0.000000
vn 0.000000 1.000000 0.000000
vn 0.000000 1.000000 0.000000
vn 0.000000 1.000000 0.000000
vn 0.000000 1.000000 0.000000
vn 0.000000 1.000000 0.000000
vn 0.000000 1.000000 0.000000
vn 0.000000 1.000000 0.000000
vn 0.000000 1.000000 0.000000
vn 0.000000 1.000000 0.000000
vn 0.000000 1.000000 0.000000
vn 0.000000 1.000000 0.000000
vn 0.000000 1.000000 0.000000
vn 0.000000 1.000000 0.000000
vn 0.000000 1.000000 0.000000
vn 0.000000 1.000000 0.000000
vn 0.000000 1.000000 0.000000
vn 0.000000 1.000000 0.000000
vn 0.000000 1.000000 0.000000
vn 0.000000 1.000000 0.000000
vn 0.000000 1.000000 0.000000
vn 0.000000 1.000000 0.000000
vn 0.000000 1.000000 0.000000
vn 0.000000 1.000000 0.000000
vn 0.000000 1.000000 0.000000
vn 0.000000 1.000000 0.000000
vn 0.000000 1.000000 0.000000
vn 0.000000 1.000000 0.000000
vn 0.000000 1.000000 0.000000
vn 0.000000 1.000000 0.000000
vn 0.000000 1.000000 0.000000
vn 0.000000 1.000000 0.000000
vn 0.000000 1.000000 0.000000
vn 0.000000 1.000000 0.000000
vn 0.000000 1.000000 0.000000
vn 0.000000 1.000000 0.000000
vn 0.000000 1.000000 0.000000
vn 0.000000 1.000000 0.000000
vn 0.000000 1.000000 0.000000
vn 0.000000 1.000000 0.000000
vn 0.000000 1.000000 0.000000
vn 0.000000 1.000000 0.000000
vn 0.000000 1.000000 0.000000
vn 0.000000 1.000000 0.000000
vn 0.000000 1.000000 0.000000
vn 0.000000 1.000000 0.000000
vn 0.000000 1.000000 0.000000
vn 0.000000 1.000000 0.000000
vn 0.000000 1.000000 0.000000
vn 0.000000 1.000000 0.000000
vn 0.000000 1.000000 0.000000
vn 0.000000 1.000000 0.000000
vn 0.000000 1.000000 0.000000
vn 0.951266 0.000000 -0.308372
vn 0.809340 0.000000 -0.587340
vn 0.831472 0.000000 -0.555566
vn 0.964818 0.000000 -0.262918
vn 0.809340 0.000000 -0.587340
vn 0.588082 0.000000 -0.808801
vn 0.608966 0.000000 -0.793196
vn 0.831472 0.000000 -0.555566
vn 0.588082 0.000000 -0.808801
vn 0.309155 0.000000 -0.951012
vn 0.319018 0.000000 -0.947749
vn 0.608966 0.000000 -0.793196
vn 0.309155 0.000000 -0.951012
vn -0.000092 0.000000 -1.000000
vn -0.006692 0.000000 -0.999978
vn 0.319018 0.000000 -0.947749
vn -0.000092 0.000000 -1.000000
vn -0.309321 0.000000 -0.950958
vn -0.330875 0.000000 -0.943675
vn -0.006692 0.000000 -0.999978
vn -0.309321 0.000000 -0.950958
vn -0.588201 0.000000 -0.808715
vn -0.617082 0.000000 -0.786899
vn -0.330875 0.000000 -0.943675
vn -0.588201 0.000000 -0.808715
vn -0.809402 0.000000 -0.587256
vn -0.835460 0.000000 -0.549551
vn -0.617082 0.000000 -0.786899
vn -0.809402 0.000000 -0.587256
vn -0.951281 0.000000 -0.308324
vn -0.965838 0.000000 -0.259146
vn -0.835460 0.000000 -0.549551
vn -0.951281 0.000000 -0.308324
vn -1.000000 0.000000 0.000729
vn -0.998584 0.000000 0.053194
vn -0.965838 0.000000 -0.259146
vn -1.000000 0.000000 0.000729
vn -0.950852 0.000000 0.309645
vn -0.934439 0.000000 0.356122
vn -0.998584 0.000000 0.053194
vn -0.950852 0.000000 0.309645
vn -0.808706 0.000000 0.588213
vn -0.783661 0.000000 0.621189
vn -0.934439 0.000000 0.356122
vn -0.808706 0.000000 0.588213
vn -0.587503 0.000000 0.809222
vn -0.564088 0.000000 0.825714
vn -0.783661 0.000000 0.621189
vn -0.587503 0.000000 0.809222
vn -0.308887 0.000000 0.951099
vn -0.297810 0.000000 0.954625
vn -0.564088 0.000000 0.825714
vn -0.308887 0.000000 0.951099
vn -0.000087 0.000000 1.000000
vn -0.007487 0.000000 0.999972
vn -0.297810 0.000000 0.954625
vn -0.000087 0.000000 1.000000
vn 0.308729 0.000000 0.951150
vn 0.284736 0.000000 0.958606
vn -0.007487 0.000000 0.999972
vn 0.308729 0.000000 0.951150
vn 0.587387 0.000000 0.809306
vn 0.555421 0.000000 0.831569
vn 0.284736 0.000000 0.958606
vn 0.587387 0.000000 0.809306
vn 0.808643 0.000000 0.588300
vn 0.779522 0.000000 0.626375
vn 0.555421 0.000000 0.831569
vn 0.808643 0.000000 0.588300
vn 0.950834 0.000000 0.309701
vn 0.933393 0.000000 0.358855
vn 0.779522 0.000000 0.626375
vn 0.950834 0.000000 0.309701
vn 1.000000 0.000000 0.000736
vn 0.998613 0.000000 0.052647
vn 0.933393 0.000000 0.358855
vn 1.000000 0.000000 0.000736
vn 0.951266 0.000000 -0.308372
vn 0.964818 0.000000 -0.262918
vn 0.998613 0.000000 0.052647
vn 0.000000 -1.000000 0.000000
vn 0.000000 -1.000000 0.000000
vn 0.000000 -1.000000 0.000000
vn 0.000000 -1.000000 0.000000
vn 0.000000 -1.000000 0.000000
vn 0.000000 -1.000000 0.000000
vn 0.000000 -1.000000 0.000000
vn 0.000000 -1.000000 0.000000
vn 0.000000 -1.000000 0.000000
vn 0.000000 -1.000000 0.000000
vn 0.000000 -1.000000 0.000000
vn 0.000000 -1.000000 0.000000
vn 0.000000 -1.000000 0.000000
vn 0.000000 -1.000000 0.000000
vn 0.000000 -1.000000 0.000000
vn 0.000000 -1.000000 0.000000
vn 0.000000 -1.000000 0.000000
vn 0.000000 -1.000000 0.000000
vn 0.000000 -1.000000 0.000000
vn 0.000000 -1.000000 0.000000
vn 0.000000 -1.000000 0.000000
vn 0.000000 -1.000000 0.000000
vn 0.000000 -1.000000 0.000000
vn 0.000000 -1.000000 0.000000
vn 0.000000 -1.000000 0.000000
vn 0.000000 -1.000000 0.000000
vn 0.000000 -1.000000 0.000000
vn 0.000000 -1.000000 0.000000
vn 0.000000 -1.000000 0.000000
vn 0.000000 -1.000000 0.000000
vn 0.000000 -1.000000 0.000000
vn 0.000000 -1.000000 0.000000
vn 0.000000 -1.000000 0.000000
vn 0.000000 -1.000000 0.000000
vn 0.000000 -1.000000 0.000000
vn 0.000000 -1.000000 0.000000
vn 0.000000 -1.000000 0.000000
vn 0.000000 -1.000000 0.000000
vn 0.000000 -1.000000 0.000000
vn 0.000000 -1.000000 0.000000
vn 0.000000 -1.000000 0.000000
vn 0.000000 -1.000000 0.000000
vn 0.000000 -1.000000 0.000000
vn 0.000000 -1.000000 0.000000
vn 0.000000 -1.000000 0.000000
vn 0.000000 -1.000000 0.000000
vn 0.000000 -1.000000 0.000000
vn 0.000000 -1.000000 0.000000
vn 0.000000 -1.000000 0.000000
vn 0.000000 -1.000000 0.000000
vn 0.000000 -1.000000 0.000000
vn 0.000000 -1.000000 0.000000
vn 0.000000 -1.000000 0.000000
vn 0.000000 -1.000000 0.000000
vn 0.000000 -1.000000 0.000000
vn 0.000000 -1.000000 0.000000
vn 0.000000 -1.000000 0.000000
vn 0.000000 -1.000000 0.000000
vn 0.000000 -1.000000 0.000000
vn 0.000000 -1.000000 0.000000
s off
g polySurface3
usemtl phong1SG
f 1/1/1 2/2/2 22/3/3 21/4/4
f 2/2/5 3/5/6 23/6/7 22/3/8
f 3/5/9 4/7/10 24/8/11 23/6/12
f 4/7/13 5/9/14 25/10/15 24/8/16
f 5/9/17 6/11/18 26/12/19 25/10/20
f 6/11/21 7/13/22 27/14/23 26/12/24
f 7/13/25 8/15/26 28/16/27 27/14/28
f 8/15/29 9/17/30 29/18/31 28/16/32
f 9/17/33 10/19/34 30/20/35 29/18/36
f 10/19/37 11/21/38 31/22/39 30/20/40
f 11/21/41 12/23/42 32/24/43 31/22/44
f 12/23/45 13/25/46 33/26/47 32/24/48
f 13/25/49 14/27/50 34/28/51 33/26/52
f 14/27/53 15/29/54 35/30/55 34/28/56
f 15/29/57 16/31/58 36/32/59 35/30/60
f 16/31/61 17/33/62 37/34/63 36/32/64
f 17/33/65 18/35/66 38/36/67 37/34/68
f 18/35/69 19/37/70 39/38/71 38/36/72
f 19/37/73 20/39/74 40/40/75 39/38/76
f 20/39/77 1/1/78 21/4/79 40/40/80
f 2/2/81 1/1/82 41/41/83
f 3/5/84 2/2/85 41/41/86
f 4/7/87 3/5/88 41/41/89
f 5/9/90 4/7/91 41/41/92
f 6/11/93 5/9/94 41/41/95
f 7/13/96 6/11/97 41/41/98
f 8/15/99 7/13/100 41/41/101
f 9/17/102 8/15/103 41/41/104
f 10/19/105 9/17/106 41/41/107
f 11/21/108 10/19/109 41/41/110
f 12/23/111 11/21/112 41/41/113
f 13/25/114 12/23/115 41/41/116
f 14/27/117 13/25/118 41/41/119
f 15/29/120 14/27/121 41/41/122
f 16/31/123 15/29/124 41/41/125
f 17/33/126 16/31/127 41/41/128
f 18/35/129 17/33/130 41/41/131
f 19/37/132 18/35/133 41/41/134
f 20/39/135 19/37/136 41/41/137
f 1/1/138 20/39/139 41/41/140
f 21/4/141 22/3/142 42/42/143
f 22/3/144 23/6/145 42/42/146
f 23/6/147 24/8/148 42/42/149
f 24/8/150 25/10/151 42/42/152
f 25/10/153 26/12/154 42/42/155
f 26/12/156 27/14/157 42/42/158
f 27/14/159 28/16/160 42/42/161
f 28/16/162 29/18/163 42/42/164
f 29/18/165 30/20/166 42/42/167
f 30/20/168 31/22/169 42/42/170
f 31/22/171 32/24/172 42/42/173
f 32/24/174 33/26/175 42/42/176
f 33/26/177 34/28/178 42/42/179
f 34/28/180 35/30/181 42/42/182
f 35/30/183 36/32/184 42/42/185
f 36/32/186 37/34/187 42/42/188
f 37/34/189 38/36/190 42/42/191
f 38/36/192 39/38/193 42/42/194
f 39/38/195 40/40/196 42/42/197
f 40/40/198 21/4/199 42/42/200
f 43/43/201 44/44/202 64/45/203 65/46/204
f 44/44/205 45/47/206 66/48/207 64/45/208
f 45/47/209 46/49/210 67/50/211 66/48/212
f 46/49/213 47/51/214 68/52/215 67/50/216
f 47/51/217 48/53/218 69/54/219 68/52/220
f 48/53/221 49/55/222 70/56/223 69/54/224
f 49/55/225 50/57/226 71/58/227 70/56/228
f 50/57/229 51/59/230 72/60/231 71/58/232
f 51/59/233 52/61/234 73/62/235 72/60/236
f 52/61/237 53/63/238 74/64/239 73/62/240
f 53/63/241 54/65/242 75/66/243 74/64/244
f 54/65/245 55/67/246 76/68/247 75/66/248
f 55/67/249 56/69/250 77/70/251 76/68/252
f 56/69/253 57/71/254 78/72/255 77/70/256
f 57/71/257 58/73/258 79/74/259 78/72/260
f 58/73/261 59/75/262 80/76/263 79/74/264
f 59/75/265 60/77/266 81/78/267 80/76/268
f 60/77/269 61/79/270 82/80/271 81/78/272
f 61/79/273 62/81/274 83/82/275 82/80/276
f 62/81/277 43/83/278 65/84/279 83/82/280
f 44/85/281 43/86/282 63/87/283
f 45/88/284 44/85/285 63/87/286
f 46/89/287 45/88/288 63/87/289
f 47/90/290 46/89/291 63/87/292
f 48/91/293 47/90/294 63/87/295
f 49/92/296 48/91/297 63/87/298
f 50/93/299 49/92/300 63/87/301
f 51/94/302 50/93/303 63/87/304
f 52/95/305 51/94/306 63/87/307
f 53/96/308 52/95/309 63/87/310
f 54/97/311 53/96/312 63/87/313
f 55/98/314 54/97/315 63/87/316
f 56/99/317 55/98/318 63/87/319
f 57/100/320 56/99/321 63/87/322
f 58/101/323 57/100/324 63/87/325
f 59/102/326 58/101/327 63/87/328
f 60/103/329 59/102/330 63/87/331
f 61/104/332 60/103/333 63/87/334
f 62/105/335 61/104/336 63/87/337
f 43/86/338 62/105/339 63/87/340
