# This file uses centimeters as units for non-parametric coordinates.

mtllib posters.mtl
g default
v -11.983021 1.092120 5.448648
v -10.983021 1.092120 5.448648
v -11.983021 2.092120 5.448648
v -10.983021 2.092120 5.448648
v -11.983021 2.092120 5.393517
v -10.983021 2.092120 5.393517
v -11.983021 1.092120 5.393517
v -10.983021 1.092120 5.393517
vt 0.375000 0.000000
vt 0.625000 0.000000
vt 0.375000 0.250000
vt 0.625000 0.250000
vt 0.000000 0.000000
vt 1.000000 0.000000
vt 1.000000 1.000000
vt 0.000000 1.000000
vt 0.000000 1.000000
vt 1.000000 1.000000
vt 0.000000 0.000000
vt 1.000000 0.000000
vt 1.000000 1.000000
vt 0.000000 1.000000
vt 1.000000 1.000000
vt 0.000000 1.000000
vt 0.000000 0.000000
vt 1.000000 0.000000
vt 1.000000 0.000000
vt 0.000000 0.000000
vt 1.000000 0.000000
vt 0.000000 0.000000
vt 0.000000 1.000000
vt 1.000000 1.000000
vn 0.000000 0.000000 1.000000
vn 0.000000 0.000000 1.000000
vn 0.000000 0.000000 1.000000
vn 0.000000 0.000000 1.000000
vn 0.000000 1.000000 0.000000
vn 0.000000 1.000000 0.000000
vn 0.000000 1.000000 0.000000
vn 0.000000 1.000000 0.000000
vn 0.000000 0.000000 -1.000000
vn 0.000000 0.000000 -1.000000
vn 0.000000 0.000000 -1.000000
vn 0.000000 0.000000 -1.000000
vn 0.000000 -1.000000 0.000000
vn 0.000000 -1.000000 0.000000
vn 0.000000 -1.000000 0.000000
vn 0.000000 -1.000000 0.000000
vn 1.000000 0.000000 0.000000
vn 1.000000 0.000000 0.000000
vn 1.000000 0.000000 0.000000
vn 1.000000 0.000000 0.000000
vn -1.000000 0.000000 0.000000
vn -1.000000 0.000000 0.000000
vn -1.000000 0.000000 0.000000
vn -1.000000 0.000000 0.000000
s 1
g pCube9
usemtl lambert103SG
f 1/1/1 2/2/2 3/3/3
f 3/3/3 2/2/2 4/4/4
s 2
usemtl lambert105SG
f 3/5/5 4/6/6 5/8/7
f 5/8/7 4/6/6 6/7/8
s 3
usemtl lambert103SG
f 5/15/9 6/16/10 7/18/11
f 7/18/11 6/16/10 8/17/12
s 4
usemtl lambert105SG
f 7/9/13 8/10/14 1/20/15
f 1/20/15 8/10/14 2/19/16
s 5
f 2/11/17 8/12/18 4/14/19
f 4/14/19 8/12/18 6/13/20
s 6
f 7/21/21 1/22/22 5/24/23
f 5/24/23 1/22/22 3/23/24
g default
v -11.983021 1.092120 5.448648
v -10.983021 1.092120 5.448648
v -11.983021 2.092120 5.448648
v -10.983021 2.092120 5.448648
v -11.983021 2.092120 5.393517
v -10.983021 2.092120 5.393517
v -11.983021 1.092120 5.393517
v -10.983021 1.092120 5.393517
vt 0.375000 0.000000
vt 0.625000 0.000000
vt 0.375000 0.250000
vt 0.625000 0.250000
vt 0.000000 0.000000
vt 1.000000 0.000000
vt 1.000000 1.000000
vt 0.000000 1.000000
vt 0.000000 1.000000
vt 1.000000 1.000000
vt 0.000000 0.000000
vt 1.000000 0.000000
vt 1.000000 1.000000
vt 0.000000 1.000000
vt 1.000000 1.000000
vt 0.000000 1.000000
vt 0.000000 0.000000
vt 1.000000 0.000000
vt 1.000000 0.000000
vt 0.000000 0.000000
vt 1.000000 0.000000
vt 0.000000 0.000000
vt 0.000000 1.000000
vt 1.000000 1.000000
vn 0.000000 0.000000 1.000000
vn 0.000000 0.000000 1.000000
vn 0.000000 0.000000 1.000000
vn 0.000000 0.000000 1.000000
vn 0.000000 1.000000 0.000000
vn 0.000000 1.000000 0.000000
vn 0.000000 1.000000 0.000000
vn 0.000000 1.000000 0.000000
vn 0.000000 0.000000 -1.000000
vn 0.000000 0.000000 -1.000000
vn 0.000000 0.000000 -1.000000
vn 0.000000 0.000000 -1.000000
vn 0.000000 -1.000000 0.000000
vn 0.000000 -1.000000 0.000000
vn 0.000000 -1.000000 0.000000
vn 0.000000 -1.000000 0.000000
vn 1.000000 0.000000 0.000000
vn 1.000000 0.000000 0.000000
vn 1.000000 0.000000 0.000000
vn 1.000000 0.000000 0.000000
vn -1.000000 0.000000 0.000000
vn -1.000000 0.000000 0.000000
vn -1.000000 0.000000 0.000000
vn -1.000000 0.000000 0.000000
s 1
g pCube9
f 9/25/25 10/26/26 11/27/27
f 11/27/27 10/26/26 12/28/28
s 2
f 11/29/29 12/30/30 13/32/31
f 13/32/31 12/30/30 14/31/32
s 3
f 13/39/33 14/40/34 15/42/35
f 15/42/35 14/40/34 16/41/36
s 4
f 15/33/37 16/34/38 9/44/39
f 9/44/39 16/34/38 10/43/40
s 5
f 10/35/41 16/36/42 12/38/43
f 12/38/43 16/36/42 14/37/44
s 6
f 15/45/45 9/46/46 13/48/47
f 13/48/47 9/46/46 11/47/48
