# This file uses centimeters as units for non-parametric coordinates.

mtllib cuerpoBox.mtl
g default
v -0.412409 -2.134466 -1.126261
v -0.412409 -2.134466 0.456284
v -0.412409 -2.007862 -1.126261
v -0.412409 -2.034454 0.456284
v 0.410514 -2.007862 -1.126261
v 0.410514 -2.034454 0.456284
v 0.410514 -2.134466 -1.126261
v 0.410514 -2.134466 0.456284
v -0.412409 -2.071164 -0.334989
v -0.412409 -2.134466 -0.334989
v -0.412409 -2.071164 0.456284
v -0.412409 -2.007862 -0.334989
v -0.412409 -2.071164 -1.126261
v -0.000948 -2.007862 -0.334989
v -0.000948 -2.034454 0.456284
v 0.410514 -2.007862 -0.334989
v -0.000948 -2.007862 -1.126261
v 0.410514 -2.071164 -0.334989
v 0.410514 -2.071164 0.456284
v 0.410514 -2.134466 -0.334989
v 0.410514 -2.071164 -1.126261
v -0.000948 -2.134466 -0.334989
v -0.000948 -2.134466 0.456284
v -0.000948 -2.134466 -1.126261
v -0.000948 -2.071164 0.456284
v -0.000948 -2.071164 -1.126261
v -0.317456 -2.016907 -1.133858
v -0.317456 -2.016907 -0.500839
v -0.317456 0.297894 -1.133858
v -0.317456 0.297894 -0.500839
v 0.315561 0.297894 -1.133858
v 0.315561 0.297894 -0.500839
v 0.315561 -2.016907 -1.133858
v 0.315561 -2.016907 -0.500839
v -0.000948 -0.859506 -0.500839
v -0.000948 -2.016907 -0.500839
v 0.315561 -0.859506 -0.500839
v -0.000948 0.297894 -0.500839
v -0.317456 -0.859506 -0.500839
v -0.159202 -1.438206 -0.500839
v -0.317456 -1.438206 -0.500839
v -0.159202 -2.016907 -0.500839
v -0.000948 -1.438206 -0.500839
v -0.159202 -0.859506 -0.500839
v 0.157307 -1.438206 -0.500839
v 0.157307 -2.016907 -0.500839
v 0.315561 -1.438206 -0.500839
v 0.157307 -0.859506 -0.500839
v 0.157307 -0.280806 -0.500839
v 0.315561 -0.280806 -0.500839
v 0.157307 0.297894 -0.500839
v -0.000948 -0.280806 -0.500839
v -0.159202 -0.280806 -0.500839
v -0.159202 0.297894 -0.500839
v -0.317456 -0.280806 -0.500839
v 0.098096 0.036731 0.099932
v 0.187445 0.036731 0.010017
v 0.258352 0.036731 -0.130026
v 0.303878 0.036731 -0.306491
v 0.319565 0.036731 -0.502105
v -0.321460 0.036731 -0.502105
v -0.305772 0.036731 -0.306491
v -0.260247 0.036731 -0.130026
v -0.189340 0.036731 0.010017
v -0.099991 0.036731 0.099931
v -0.000948 0.036731 0.130913
v 0.098096 0.296532 0.099932
v 0.187445 0.296532 0.010017
v 0.258352 0.296532 -0.130026
v 0.303878 0.296532 -0.306491
v 0.319565 0.296532 -0.502105
v -0.321460 0.296532 -0.502105
v -0.305772 0.296532 -0.306491
v -0.260247 0.296532 -0.130026
v -0.189340 0.296532 0.010017
v -0.099991 0.296532 0.099931
v -0.000948 0.296532 0.130913
v -0.000948 0.036731 -0.502105
v -0.000948 0.296532 -0.502105
vt 0.375000 0.125000
vt 0.375000 0.000000
vt 0.500000 0.125000
vt 0.500000 0.000000
vt -0.000000 0.500000
vt -0.000000 0.000000
vt 0.500000 0.500000
vt 0.500000 0.000000
vt 0.375000 0.625000
vt 0.375000 0.500000
vt 0.500000 0.625000
vt 0.500000 0.500000
vt 0.375000 0.875000
vt 0.375000 0.750000
vt 0.500000 0.875000
vt 0.500000 0.750000
vt 0.625000 0.125000
vt 0.625000 0.000000
vt 0.750000 0.125000
vt 0.750000 0.000000
vt 0.125000 0.125000
vt 0.125000 0.000000
vt 0.250000 0.125000
vt 0.250000 0.000000
vt 0.625000 0.250000
vt 0.500000 0.250000
vt 0.375000 0.250000
vt 1.000000 0.000000
vt 1.000000 0.500000
vt 1.000000 1.000000
vt 0.500000 1.000000
vt -0.000000 1.000000
vt 0.625000 0.500000
vt 0.625000 0.625000
vt 0.625000 0.750000
vt 0.625000 0.875000
vt 0.625000 1.000000
vt 0.500000 1.000000
vt 0.375000 1.000000
vt 0.875000 0.000000
vt 0.875000 0.125000
vt 0.875000 0.250000
vt 0.750000 0.250000
vt 0.250000 0.250000
vt 0.125000 0.250000
vt 0.000000 0.000000
vt 1.000000 0.000000
vt 0.000000 1.000000
vt 1.000000 0.250000
vt 1.000000 0.500000
vt 1.000000 0.750000
vt 1.000000 1.000000
vt 0.000000 -0.000000
vt 1.000000 -0.000000
vt 0.000000 1.000000
vt 1.000000 0.250000
vt 1.000000 0.500000
vt 1.000000 0.750000
vt 1.000000 1.000000
vt 0.000000 1.000000
vt 1.000000 1.000000
vt 0.000000 -0.000000
vt 1.000000 0.750000
vt 1.000000 0.500000
vt 1.000000 0.250000
vt 1.000000 -0.000000
vt 0.375000 0.750000
vt 0.625000 0.750000
vt 0.375000 1.000000
vt 0.625000 0.812500
vt 0.625000 0.875000
vt 0.625000 0.937500
vt 0.625000 1.000000
vt 0.250000 0.500000
vt 0.000000 0.500000
vt 0.250000 0.250000
vt 0.000000 0.250000
vt 1.000000 -0.000000
vt 0.000000 -0.000000
vt 1.000000 1.000000
vt 0.000000 1.000000
vt 0.500000 0.250000
vt 0.500000 -0.000000
vt 0.750000 0.250000
vt 0.750000 -0.000000
vt 0.750000 0.500000
vt 1.000000 0.500000
vt 0.750000 0.750000
vt 1.000000 0.750000
vt 0.500000 0.750000
vt 0.500000 1.000000
vt 0.250000 0.750000
vt 0.250000 1.000000
vt 0.000000 -0.000000
vt 0.250000 -0.000000
vt 0.500000 0.500000
vt 1.000000 -0.000000
vt 1.000000 0.250000
vt 1.000000 1.000000
vt 0.750000 1.000000
vt 0.500000 1.000000
vt 0.500000 0.000000
vt 1.000000 1.000000
vt 1.000000 0.000000
vt 0.000000 1.000000
vt 0.000000 0.750000
vt 0.000000 0.000000
vt 0.000000 1.000000
vt 0.030474 0.029751
vt 0.042974 0.029751
vt 0.030474 0.404751
vt 0.042974 0.404751
vt 0.055474 0.029751
vt 0.055474 0.404751
vt 0.067974 0.029751
vt 0.067974 0.404751
vt 0.080474 0.029751
vt 0.080474 0.404751
vt 0.134193 0.027375
vt 0.146693 0.027375
vt 0.134193 0.402375
vt 0.146693 0.402375
vt 0.159193 0.027375
vt 0.159193 0.402375
vt 0.171693 0.027375
vt 0.171693 0.402375
vt 0.184193 0.027375
vt 0.184193 0.402375
vt 0.196693 0.027375
vt 0.196693 0.402375
vt 0.209193 0.027375
vt 0.209193 0.402375
vt 0.429198 0.147570
vt 0.451391 0.191127
vt 0.302789 0.239411
vt 0.394630 0.113002
vt 0.351073 0.090809
vt 0.302789 0.083161
vt 0.351073 0.388014
vt 0.302789 0.395661
vt 0.394630 0.365820
vt 0.429198 0.331253
vt 0.451391 0.287695
vt 0.459039 0.239411
vt 0.665235 0.279016
vt 0.643041 0.322573
vt 0.516632 0.230732
vt 0.608474 0.357141
vt 0.564916 0.379334
vt 0.516632 0.386982
vt 0.516632 0.074482
vt 0.564916 0.082129
vt 0.608474 0.104323
vt 0.643041 0.138890
vt 0.665235 0.182448
vt 0.672882 0.230732
vn -1.000000 0.000000 0.000000
vn -1.000000 0.000000 0.000000
vn -1.000000 0.000000 0.000000
vn -1.000000 0.000000 0.000000
vn -1.000000 0.000000 0.000000
vn -1.000000 0.000000 0.000000
vn 0.000000 1.000000 0.000000
vn 0.000000 1.000000 0.000000
vn 0.000000 1.000000 0.000000
vn 0.000000 1.000000 0.000000
vn 0.000000 1.000000 0.000000
vn 0.000000 1.000000 0.000000
vn 1.000000 0.000000 0.000000
vn 1.000000 0.000000 0.000000
vn 1.000000 0.000000 0.000000
vn 1.000000 0.000000 0.000000
vn 1.000000 0.000000 0.000000
vn 1.000000 0.000000 0.000000
vn 0.000000 -1.000000 0.000000
vn 0.000000 -1.000000 0.000000
vn 0.000000 -1.000000 0.000000
vn 0.000000 -1.000000 0.000000
vn 0.000000 -1.000000 0.000000
vn 0.000000 -1.000000 0.000000
vn 0.000000 0.000000 1.000000
vn 0.000000 0.000000 1.000000
vn 0.000000 0.000000 1.000000
vn 0.000000 0.000000 1.000000
vn 0.000000 0.000000 1.000000
vn 0.000000 0.000000 1.000000
vn 0.000000 0.000000 -1.000000
vn 0.000000 0.000000 -1.000000
vn 0.000000 0.000000 -1.000000
vn 0.000000 0.000000 -1.000000
vn 0.000000 0.000000 -1.000000
vn 0.000000 0.000000 -1.000000
vn -1.000000 0.000000 0.000000
vn -1.000000 0.000000 0.000000
vn -1.000000 0.000000 0.000000
vn -1.000000 0.000000 0.000000
vn -1.000000 0.000000 0.000000
vn -1.000000 0.000000 0.000000
vn -1.000000 0.000000 0.000000
vn -1.000000 0.000000 0.000000
vn -1.000000 0.000000 0.000000
vn -1.000000 0.000000 0.000000
vn -1.000000 0.000000 0.000000
vn -1.000000 0.000000 0.000000
vn -1.000000 0.000000 0.000000
vn -1.000000 0.000000 0.000000
vn -1.000000 0.000000 0.000000
vn -1.000000 0.000000 0.000000
vn -1.000000 0.000000 0.000000
vn -1.000000 0.000000 0.000000
vn 0.000000 0.999436 0.033587
vn 0.000000 0.999436 0.033587
vn 0.000000 0.999436 0.033587
vn 0.000000 0.999436 0.033587
vn 0.000000 0.999436 0.033587
vn 0.000000 0.999436 0.033587
vn 0.000000 0.999436 0.033587
vn 0.000000 0.999436 0.033587
vn 0.000000 0.999436 0.033587
vn 0.000000 0.999436 0.033587
vn 0.000000 0.999436 0.033587
vn 0.000000 0.999436 0.033587
vn 0.000000 1.000000 0.000000
vn 0.000000 1.000000 0.000000
vn 0.000000 1.000000 0.000000
vn 0.000000 1.000000 0.000000
vn 0.000000 1.000000 0.000000
vn 0.000000 1.000000 0.000000
vn 1.000000 0.000000 0.000000
vn 1.000000 0.000000 0.000000
vn 1.000000 0.000000 0.000000
vn 1.000000 0.000000 0.000000
vn 1.000000 0.000000 0.000000
vn 1.000000 0.000000 0.000000
vn 1.000000 0.000000 0.000000
vn 1.000000 0.000000 0.000000
vn 1.000000 0.000000 0.000000
vn 1.000000 0.000000 0.000000
vn 1.000000 0.000000 0.000000
vn 1.000000 0.000000 0.000000
vn 1.000000 0.000000 0.000000
vn 1.000000 0.000000 0.000000
vn 1.000000 0.000000 0.000000
vn 1.000000 0.000000 0.000000
vn 1.000000 0.000000 0.000000
vn 1.000000 0.000000 0.000000
vn 0.000000 -1.000000 0.000000
vn 0.000000 -1.000000 0.000000
vn 0.000000 -1.000000 0.000000
vn 0.000000 -1.000000 0.000000
vn 0.000000 -1.000000 0.000000
vn 0.000000 -1.000000 0.000000
vn 0.000000 -1.000000 0.000000
vn 0.000000 -1.000000 0.000000
vn 0.000000 -1.000000 0.000000
vn 0.000000 -1.000000 0.000000
vn 0.000000 -1.000000 0.000000
vn 0.000000 -1.000000 0.000000
vn 0.000000 -1.000000 0.000000
vn 0.000000 -1.000000 0.000000
vn 0.000000 -1.000000 0.000000
vn 0.000000 -1.000000 0.000000
vn 0.000000 -1.000000 0.000000
vn 0.000000 -1.000000 0.000000
vn 0.000000 0.000000 1.000000
vn 0.000000 0.000000 1.000000
vn 0.000000 0.000000 1.000000
vn 0.000000 0.000000 1.000000
vn 0.000000 0.000000 1.000000
vn 0.000000 0.000000 1.000000
vn 0.000000 0.000000 1.000000
vn 0.000000 0.000000 1.000000
vn 0.000000 0.000000 1.000000
vn 0.000000 0.000000 1.000000
vn 0.000000 0.000000 1.000000
vn 0.000000 0.000000 1.000000
vn 0.000000 0.000000 1.000000
vn 0.000000 0.000000 1.000000
vn 0.000000 0.000000 1.000000
vn 0.000000 0.000000 1.000000
vn 0.000000 0.000000 1.000000
vn 0.000000 0.000000 1.000000
vn 0.000000 0.000000 -1.000000
vn 0.000000 0.000000 -1.000000
vn 0.000000 0.000000 -1.000000
vn 0.000000 0.000000 -1.000000
vn 0.000000 0.000000 -1.000000
vn 0.000000 0.000000 -1.000000
vn 0.000000 0.000000 -1.000000
vn 0.000000 0.000000 -1.000000
vn 0.000000 0.000000 -1.000000
vn 0.000000 0.000000 -1.000000
vn 0.000000 0.000000 -1.000000
vn 0.000000 0.000000 -1.000000
vn 0.000000 0.000000 -1.000000
vn 0.000000 0.000000 -1.000000
vn 0.000000 0.000000 -1.000000
vn 0.000000 0.000000 -1.000000
vn 0.000000 0.000000 -1.000000
vn 0.000000 0.000000 -1.000000
vn -1.000000 0.000000 0.000000
vn -1.000000 0.000000 0.000000
vn -1.000000 0.000000 0.000000
vn -1.000000 0.000000 0.000000
vn -1.000000 0.000000 0.000000
vn -1.000000 0.000000 0.000000
vn -1.000000 0.000000 0.000000
vn -1.000000 0.000000 0.000000
vn -1.000000 0.000000 0.000000
vn -1.000000 0.000000 0.000000
vn -1.000000 0.000000 0.000000
vn -1.000000 0.000000 0.000000
vn -1.000000 0.000000 0.000000
vn -1.000000 0.000000 0.000000
vn -1.000000 0.000000 0.000000
vn 0.000000 1.000000 0.000000
vn 0.000000 1.000000 0.000000
vn 0.000000 1.000000 0.000000
vn 0.000000 1.000000 0.000000
vn 0.000000 1.000000 0.000000
vn 0.000000 1.000000 0.000000
vn 0.000000 1.000000 0.000000
vn 0.000000 1.000000 0.000000
vn 0.000000 1.000000 0.000000
vn 0.000000 1.000000 0.000000
vn 0.000000 1.000000 0.000000
vn 0.000000 1.000000 0.000000
vn 0.000000 1.000000 0.000000
vn 0.000000 1.000000 0.000000
vn 0.000000 1.000000 0.000000
vn 1.000000 0.000000 0.000000
vn 1.000000 0.000000 0.000000
vn 1.000000 0.000000 0.000000
vn 1.000000 0.000000 0.000000
vn 1.000000 0.000000 0.000000
vn 1.000000 0.000000 0.000000
vn 1.000000 0.000000 0.000000
vn 1.000000 0.000000 0.000000
vn 1.000000 0.000000 0.000000
vn 1.000000 0.000000 0.000000
vn 1.000000 0.000000 0.000000
vn 1.000000 0.000000 0.000000
vn 1.000000 0.000000 0.000000
vn 1.000000 0.000000 0.000000
vn 1.000000 0.000000 0.000000
vn 0.000000 -1.000000 0.000000
vn 0.000000 -1.000000 0.000000
vn 0.000000 -1.000000 0.000000
vn 0.000000 -1.000000 0.000000
vn 0.000000 -1.000000 0.000000
vn 0.000000 -1.000000 0.000000
vn 0.000000 -1.000000 0.000000
vn 0.000000 -1.000000 0.000000
vn 0.000000 -1.000000 0.000000
vn 0.000000 -1.000000 0.000000
vn 0.000000 -1.000000 0.000000
vn 0.000000 -1.000000 0.000000
vn 0.000000 -1.000000 0.000000
vn 0.000000 -1.000000 0.000000
vn 0.000000 -1.000000 0.000000
vn 0.000000 0.000000 1.000000
vn 0.000000 0.000000 1.000000
vn 0.000000 0.000000 1.000000
vn 0.000000 0.000000 1.000000
vn 0.000000 0.000000 1.000000
vn 0.000000 0.000000 1.000000
vn 0.000000 0.000000 -1.000000
vn 0.000000 0.000000 -1.000000
vn 0.000000 0.000000 -1.000000
vn 0.000000 0.000000 -1.000000
vn 0.000000 0.000000 -1.000000
vn 0.000000 0.000000 -1.000000
vn 0.000000 0.000000 1.000000
vn 0.000000 0.000000 1.000000
vn 0.000000 0.000000 1.000000
vn 0.000000 0.000000 1.000000
vn 0.000000 0.000000 1.000000
vn 0.000000 0.000000 1.000000
vn 0.000000 0.000000 1.000000
vn 0.000000 0.000000 1.000000
vn 0.000000 0.000000 1.000000
vn 0.000000 0.000000 1.000000
vn 0.000000 0.000000 1.000000
vn 0.000000 0.000000 1.000000
vn 0.000000 0.000000 1.000000
vn 0.000000 0.000000 1.000000
vn 0.000000 0.000000 1.000000
vn 0.000000 0.000000 1.000000
vn 0.000000 0.000000 1.000000
vn 0.000000 0.000000 1.000000
vn 0.000000 0.000000 1.000000
vn 0.000000 0.000000 1.000000
vn 0.000000 0.000000 1.000000
vn 0.000000 0.000000 1.000000
vn 0.000000 0.000000 1.000000
vn 0.000000 0.000000 1.000000
vn 0.000000 0.000000 1.000000
vn 0.000000 0.000000 1.000000
vn 0.000000 0.000000 1.000000
vn 0.000000 0.000000 1.000000
vn 0.000000 0.000000 1.000000
vn 0.000000 0.000000 1.000000
vn 0.000000 0.000000 1.000000
vn 0.000000 0.000000 1.000000
vn 0.000000 0.000000 1.000000
vn 0.000000 0.000000 1.000000
vn 0.000000 0.000000 1.000000
vn 0.000000 0.000000 1.000000
vn 0.000000 0.000000 1.000000
vn 0.000000 0.000000 1.000000
vn 0.000000 0.000000 1.000000
vn 0.000000 0.000000 1.000000
vn 0.000000 0.000000 1.000000
vn 0.000000 0.000000 1.000000
vn 0.000000 0.000000 1.000000
vn 0.000000 0.000000 1.000000
vn 0.000000 0.000000 1.000000
vn 0.000000 0.000000 1.000000
vn 0.000000 0.000000 1.000000
vn 0.000000 0.000000 1.000000
vn 0.000000 0.000000 1.000000
vn 0.000000 0.000000 1.000000
vn 0.000000 0.000000 1.000000
vn 0.000000 0.000000 1.000000
vn 0.000000 0.000000 1.000000
vn 0.000000 0.000000 1.000000
vn 0.000000 0.000000 1.000000
vn 0.000000 0.000000 1.000000
vn 0.000000 0.000000 1.000000
vn 0.000000 0.000000 1.000000
vn 0.000000 0.000000 1.000000
vn 0.000000 0.000000 1.000000
vn 0.000000 0.000000 1.000000
vn 0.000000 0.000000 1.000000
vn 0.000000 0.000000 1.000000
vn 0.000000 0.000000 1.000000
vn 0.000000 0.000000 1.000000
vn 0.000000 0.000000 1.000000
vn 0.000000 0.000000 1.000000
vn 0.000000 0.000000 1.000000
vn 0.000000 0.000000 1.000000
vn 0.000000 0.000000 1.000000
vn 0.000000 0.000000 1.000000
vn 0.000000 0.000000 1.000000
vn 0.000000 0.000000 1.000000
vn 0.000000 0.000000 1.000000
vn 0.000000 0.000000 1.000000
vn 0.000000 0.000000 1.000000
vn 0.000000 0.000000 1.000000
vn 0.000000 0.000000 1.000000
vn 0.000000 0.000000 1.000000
vn 0.000000 0.000000 1.000000
vn 0.000000 0.000000 1.000000
vn 0.000000 0.000000 1.000000
vn 0.000000 0.000000 1.000000
vn 0.000000 0.000000 1.000000
vn 0.000000 0.000000 1.000000
vn 0.000000 0.000000 1.000000
vn 0.000000 0.000000 1.000000
vn 0.000000 0.000000 1.000000
vn 0.000000 0.000000 1.000000
vn 0.000000 0.000000 1.000000
vn 0.540081 0.000000 0.841613
vn 0.820427 0.000000 0.571751
vn 0.540081 0.000000 0.841613
vn 0.540081 0.000000 0.841613
vn 0.820427 0.000000 0.571751
vn 0.820427 0.000000 0.571751
vn 0.820427 0.000000 0.571751
vn 0.938512 0.000000 0.345246
vn 0.820427 0.000000 0.571751
vn 0.820427 0.000000 0.571751
vn 0.938512 0.000000 0.345246
vn 0.938512 0.000000 0.345246
vn 0.938512 0.000000 0.345246
vn 0.986736 0.000000 0.162332
vn 0.938512 0.000000 0.345246
vn 0.938512 0.000000 0.345246
vn 0.986736 0.000000 0.162332
vn 0.986736 0.000000 0.162332
vn 0.986736 0.000000 0.162332
vn 0.996800 0.000000 0.079937
vn 0.986736 0.000000 0.162332
vn 0.986736 0.000000 0.162332
vn 0.996800 0.000000 0.079937
vn 0.996800 0.000000 0.079937
vn -0.996800 0.000000 0.079937
vn -0.986736 0.000000 0.162333
vn -0.996800 0.000000 0.079937
vn -0.996800 0.000000 0.079937
vn -0.986736 0.000000 0.162333
vn -0.986736 0.000000 0.162332
vn -0.986736 0.000000 0.162333
vn -0.938512 0.000000 0.345246
vn -0.986736 0.000000 0.162332
vn -0.986736 0.000000 0.162332
vn -0.938512 0.000000 0.345246
vn -0.938512 0.000000 0.345246
vn -0.938512 0.000000 0.345246
vn -0.820427 0.000000 0.571751
vn -0.938512 0.000000 0.345246
vn -0.938512 0.000000 0.345246
vn -0.820427 0.000000 0.571751
vn -0.820427 0.000000 0.571751
vn -0.820427 0.000000 0.571751
vn -0.540082 0.000000 0.841612
vn -0.820427 0.000000 0.571751
vn -0.820427 0.000000 0.571751
vn -0.540082 0.000000 0.841612
vn -0.540082 0.000000 0.841612
vn -0.540082 0.000000 0.841612
vn -0.000002 0.000000 1.000000
vn -0.540082 0.000000 0.841612
vn -0.540082 0.000000 0.841612
vn -0.000002 0.000000 1.000000
vn -0.000002 0.000000 1.000000
vn -0.000002 0.000000 1.000000
vn 0.540081 0.000000 0.841613
vn -0.000002 0.000000 1.000000
vn -0.000002 0.000000 1.000000
vn 0.540081 0.000000 0.841613
vn 0.540081 0.000000 0.841613
vn 0.000000 -1.000000 0.000000
vn 0.000000 -1.000000 0.000000
vn 0.000000 -1.000000 0.000000
vn 0.000001 -1.000000 0.000000
vn 0.000000 -1.000000 0.000000
vn 0.000000 -1.000000 0.000000
vn 0.000000 -1.000000 0.000000
vn 0.000001 -1.000000 0.000000
vn 0.000000 -1.000000 0.000000
vn 0.000000 -1.000000 0.000000
vn 0.000000 -1.000000 0.000000
vn 0.000000 -1.000000 0.000000
vn 0.000000 -1.000000 0.000000
vn 0.000000 -1.000000 0.000000
vn 0.000000 -1.000000 0.000000
vn -0.000002 -1.000000 0.000000
vn 0.000000 -1.000000 0.000000
vn 0.000000 -1.000000 0.000000
vn 0.000001 -1.000000 0.000000
vn -0.000002 -1.000000 0.000000
vn 0.000000 -1.000000 0.000000
vn 0.000001 -1.000000 0.000000
vn 0.000001 -1.000000 0.000000
vn 0.000000 -1.000000 0.000000
vn 0.000000 -1.000000 0.000000
vn 0.000001 -1.000000 0.000000
vn 0.000000 -1.000000 0.000000
vn 0.000000 -1.000000 0.000000
vn 0.000000 -1.000000 0.000000
vn 0.000000 -1.000000 0.000000
vn 0.000000 1.000000 0.000000
vn -0.000001 1.000000 0.000000
vn 0.000000 1.000000 0.000000
vn -0.000001 1.000000 0.000000
vn -0.000002 1.000000 0.000000
vn 0.000000 1.000000 0.000000
vn -0.000002 1.000000 0.000000
vn 0.000000 1.000000 0.000000
vn 0.000000 1.000000 0.000000
vn 0.000000 1.000000 0.000000
vn 0.000000 1.000000 0.000000
vn 0.000000 1.000000 0.000000
vn 0.000000 1.000000 0.000000
vn -0.000001 1.000000 0.000000
vn 0.000000 1.000000 0.000000
vn -0.000001 1.000000 0.000000
vn 0.000002 1.000000 0.000000
vn 0.000000 1.000000 0.000000
vn 0.000002 1.000000 0.000000
vn 0.000001 1.000000 0.000000
vn 0.000000 1.000000 0.000000
vn 0.000001 1.000000 0.000000
vn 0.000000 1.000000 0.000000
vn 0.000000 1.000000 0.000000
vn 0.000000 1.000000 0.000000
vn 0.000000 1.000000 0.000000
vn 0.000000 1.000000 0.000000
vn 0.000000 1.000000 0.000000
vn 0.000000 1.000000 0.000000
vn 0.000000 1.000000 0.000000
s off
g polySurface234
usemtl cuerpoBox:initialShadingGroup
f 13/1/1 1/2/2 9/3/3
f 9/3/4 1/2/5 10/4/6
usemtl phong4SG
f 17/5/7 3/6/8 14/7/9
f 14/7/10 3/6/11 12/8/12
usemtl cuerpoBox:initialShadingGroup
f 21/9/13 5/10/14 18/11/15
f 18/11/16 5/10/17 16/12/18
f 24/13/19 7/14/20 22/15/21
f 22/15/22 7/14/23 20/16/24
f 11/17/25 2/18/26 25/19/27
f 25/19/28 2/18/29 23/20/30
f 21/21/31 7/22/32 26/23/33
f 26/23/34 7/22/35 24/24/36
f 10/4/37 2/18/38 9/3/39
f 9/3/40 2/18/41 11/17/42
f 11/17/43 4/25/44 9/3/45
f 9/3/46 4/25/47 12/26/48
f 12/26/49 3/27/50 9/3/51
f 9/3/52 3/27/53 13/1/54
usemtl phong4SG
f 12/8/55 4/28/56 14/7/57
f 14/7/58 4/28/59 15/29/60
f 15/29/61 6/30/62 14/7/63
f 14/7/64 6/30/65 16/31/66
f 16/31/67 5/32/68 14/7/69
f 14/7/70 5/32/71 17/5/72
usemtl cuerpoBox:initialShadingGroup
f 16/12/73 6/33/74 18/11/75
f 18/11/76 6/33/77 19/34/78
f 19/34/79 8/35/80 18/11/81
f 18/11/82 8/35/83 20/16/84
f 20/16/85 7/14/86 18/11/87
f 18/11/88 7/14/89 21/9/90
f 20/16/91 8/35/92 22/15/93
f 22/15/94 8/35/95 23/36/96
f 23/36/97 2/37/98 22/15/99
f 22/15/100 2/37/101 10/38/102
f 10/38/103 1/39/104 22/15/105
f 22/15/106 1/39/107 24/13/108
f 23/20/109 8/40/110 25/19/111
f 25/19/112 8/40/113 19/41/114
f 19/41/115 6/42/116 25/19/117
f 25/19/118 6/42/119 15/43/120
f 15/43/121 4/25/122 25/19/123
f 25/19/124 4/25/125 11/17/126
f 24/24/127 1/2/128 26/23/129
f 26/23/130 1/2/131 13/1/132
f 13/1/133 3/27/134 26/23/135
f 26/23/136 3/27/137 17/44/138
f 17/44/139 5/45/140 26/23/141
f 26/23/142 5/45/143 21/21/144
usemtl cuerpoBox:phong5SG
f 27/46/145 28/47/146 29/48/147
f 28/47/148 41/49/149 29/48/150
f 41/49/151 39/50/152 29/48/153
f 39/50/154 55/51/155 29/48/156
f 55/51/157 30/52/158 29/48/159
f 29/53/160 30/54/161 31/55/162
f 30/54/163 54/56/164 31/55/165
f 54/56/166 38/57/167 31/55/168
f 38/57/169 51/58/170 31/55/171
f 51/58/172 32/59/173 31/55/174
f 31/60/175 32/61/176 33/62/177
f 32/61/178 50/63/179 33/62/180
f 50/63/181 37/64/182 33/62/183
f 37/64/184 47/65/185 33/62/186
f 47/65/187 34/66/188 33/62/189
f 33/67/190 34/68/191 27/69/192
f 34/68/193 46/70/194 27/69/195
f 46/70/196 36/71/197 27/69/198
f 36/71/199 42/72/200 27/69/201
f 42/72/202 28/73/203 27/69/204
f 44/74/205 39/75/206 40/76/207
f 40/76/208 39/75/209 41/77/210
f 33/78/211 27/79/212 31/80/213
f 31/80/214 27/79/215 29/81/216
f 43/82/217 36/83/218 45/84/219
f 45/84/220 36/83/221 46/85/222
f 48/86/223 37/87/224 49/88/225
f 49/88/226 37/87/227 50/89/228
f 52/90/229 38/91/230 53/92/231
f 53/92/232 38/91/233 54/93/234
f 41/77/235 28/94/236 40/76/237
f 40/76/238 28/94/239 42/95/240
f 42/95/241 36/83/242 40/76/243
f 40/76/244 36/83/245 43/82/246
f 43/82/247 35/96/248 40/76/249
f 40/76/250 35/96/251 44/74/252
f 46/85/253 34/97/254 45/84/255
f 45/84/256 34/97/257 47/98/258
f 47/98/259 37/87/260 45/84/261
f 45/84/262 37/87/263 48/86/264
f 48/86/265 35/96/266 45/84/267
f 45/84/268 35/96/269 43/82/270
f 50/89/271 32/99/272 49/88/273
f 49/88/274 32/99/275 51/100/276
f 51/100/277 38/91/278 49/88/279
f 49/88/280 38/91/281 52/90/282
usemtl lambert88SG
f 52/101/283 35/102/284 49/103/285
f 49/103/286 35/102/287 48/104/288
usemtl cuerpoBox:phong5SG
f 54/93/289 30/105/290 53/92/291
f 53/92/292 30/105/293 55/106/294
f 55/106/295 39/75/296 53/92/297
f 53/92/298 39/75/299 44/74/300
usemtl lambert88SG
f 44/107/301 35/102/302 53/108/303
f 53/108/304 35/102/305 52/101/306
usemtl cuerpoBox:phong6SG
f 56/109/307 57/110/308 67/111/309
f 67/111/310 57/110/311 68/112/312
f 57/110/313 58/113/314 68/112/315
f 68/112/316 58/113/317 69/114/318
f 58/113/319 59/115/320 69/114/321
f 69/114/322 59/115/323 70/116/324
f 59/115/325 60/117/326 70/116/327
f 70/116/328 60/117/329 71/118/330
f 61/119/331 62/120/332 72/121/333
f 72/121/334 62/120/335 73/122/336
f 62/120/337 63/123/338 73/122/339
f 73/122/340 63/123/341 74/124/342
f 63/123/343 64/125/344 74/124/345
f 74/124/346 64/125/347 75/126/348
f 64/125/349 65/127/350 75/126/351
f 75/126/352 65/127/353 76/128/354
f 65/127/355 66/129/356 76/128/357
f 76/128/358 66/129/359 77/130/360
f 66/129/361 56/131/362 77/130/363
f 77/130/364 56/131/365 67/132/366
f 57/133/367 56/134/368 78/135/369
f 58/136/370 57/133/371 78/135/372
f 59/137/373 58/136/374 78/135/375
f 60/138/376 59/137/377 78/135/378
f 62/139/379 61/140/380 78/135/381
f 63/141/382 62/139/383 78/135/384
f 64/142/385 63/141/386 78/135/387
f 65/143/388 64/142/389 78/135/390
f 66/144/391 65/143/392 78/135/393
f 56/134/394 66/144/395 78/135/396
f 67/145/397 68/146/398 79/147/399
f 68/146/400 69/148/401 79/147/402
f 69/148/403 70/149/404 79/147/405
f 70/149/406 71/150/407 79/147/408
f 72/151/409 73/152/410 79/147/411
f 73/152/412 74/153/413 79/147/414
f 74/153/415 75/154/416 79/147/417
f 75/154/418 76/155/419 79/147/420
f 76/155/421 77/156/422 79/147/423
f 77/156/424 67/145/425 79/147/426
