# This file uses centimeters as units for non-parametric coordinates.

mtllib calle.mtl
g default
v 100.000000 -2.000000 100.000000
v 100.000000 -2.000000 -100.000000
v -100.000000 -2.000000 100.000000
v -100.000000 -2.000000 -100.000000
vt -22.821222 -22.822582
vt 23.821222 -22.822582
vt -22.821222 23.819862
vt 23.821222 23.819862
vn 0.000000 1.000000 0.000000
vn 0.000000 1.000000 0.000000
vn 0.000000 1.000000 0.000000
vn 0.000000 1.000000 0.000000
s off
g pCube1
usemtl lambert2SG
f 1/1/1 2/2/2 4/4/3 3/3/4
