# This file uses centimeters as units for non-parametric coordinates.

mtllib tapalom.mtl
g default
v -19.778702 2.478073 0.280701
v -19.825899 2.478073 0.345661
v -19.825897 2.478073 0.425957
v -19.778702 2.478073 0.490917
v -19.702335 2.478073 0.515729
v -19.625973 2.478073 0.490917
v -19.578775 2.478073 0.425957
v -19.578775 2.478073 0.345661
v -19.625971 2.478073 0.280701
v -19.702337 2.478073 0.255889
v -19.827610 2.477112 0.345105
v -19.827612 2.477112 0.426513
v -19.779760 2.477112 0.492373
v -19.702337 2.477112 0.517530
v -19.624914 2.477112 0.492373
v -19.577063 2.477112 0.426513
v -19.577063 2.477112 0.345105
v -19.577063 2.477112 0.345105
v -19.624912 2.477112 0.279244
v -19.624912 2.477112 0.279244
v -19.702337 2.477112 0.254087
v -19.779760 2.477112 0.279244
v -19.778702 2.478073 0.280701
v -19.825899 2.478073 0.345661
v -19.825897 2.478073 0.425957
v -19.778702 2.478073 0.490917
v -19.702335 2.478073 0.515729
v -19.625973 2.478073 0.490917
v -19.578775 2.478073 0.425957
v -19.578775 2.478073 0.345661
v -19.625971 2.478073 0.280701
v -19.702337 2.478073 0.255889
v -19.827610 2.477112 0.345105
v -19.827612 2.477112 0.426513
v -19.779760 2.477112 0.492373
v -19.702337 2.477112 0.517530
v -19.624914 2.477112 0.492373
v -19.577063 2.477112 0.426513
v -19.577063 2.477112 0.345105
v -19.577063 2.477112 0.345105
v -19.624912 2.477112 0.279244
v -19.624912 2.477112 0.279244
v -19.702337 2.477112 0.254087
v -19.779760 2.477112 0.279244
vn -0.005074 0.999963 -0.006952
vn -0.025850 0.999631 -0.008336
vn -0.011017 0.999933 0.003607
vn -0.005074 0.999963 -0.006952
vn -0.011017 0.999933 0.003607
vn -0.004318 0.999973 0.005971
vn -0.005074 0.999963 -0.006952
vn -0.004318 0.999973 0.005971
vn 0.000013 0.999983 0.005825
vn -0.005074 0.999963 -0.006952
vn 0.000013 0.999983 0.005825
vn 0.003190 0.999985 0.004372
vn -0.005074 0.999963 -0.006952
vn 0.003190 0.999985 0.004372
vn 0.005544 0.999983 0.001788
vn -0.005074 0.999963 -0.006952
vn 0.005544 0.999983 0.001788
vn 0.007003 0.999973 -0.002293
vn -0.005074 0.999963 -0.006952
vn 0.007003 0.999973 -0.002293
vn 0.006793 0.999933 -0.009394
vn 0.006793 0.999933 -0.009394
vn -0.000060 0.999631 -0.027161
vn -0.005074 0.999963 -0.006952
vn -0.025850 0.999631 -0.008336
vn -0.447760 0.882417 -0.144402
vn -0.447122 0.882417 0.146364
vn -0.447122 0.882417 0.146364
vn -0.011017 0.999933 0.003607
vn -0.025850 0.999631 -0.008336
vn -0.011017 0.999933 0.003607
vn -0.447122 0.882417 0.146364
vn -0.275696 0.882417 0.381224
vn -0.275696 0.882417 0.381224
vn -0.004318 0.999973 0.005971
vn -0.011017 0.999933 0.003607
vn -0.004318 0.999973 0.005971
vn -0.275696 0.882417 0.381224
vn 0.001028 0.882417 0.470468
vn 0.001028 0.882417 0.470468
vn 0.000013 0.999983 0.005825
vn -0.004318 0.999973 0.005971
vn 0.000013 0.999983 0.005825
vn 0.001028 0.882417 0.470468
vn 0.277362 0.882418 0.380012
vn 0.277362 0.882418 0.380012
vn 0.003190 0.999985 0.004372
vn 0.000013 0.999983 0.005825
vn 0.003190 0.999985 0.004372
vn 0.277362 0.882418 0.380012
vn 0.447758 0.882418 0.144401
vn 0.447758 0.882418 0.144401
vn 0.005544 0.999983 0.001788
vn 0.003190 0.999985 0.004372
vn 0.005544 0.999983 0.001788
vn 0.447758 0.882418 0.144401
vn 0.489008 0.872279 0.000000
vn 0.489008 0.872279 0.000000
vn 0.007003 0.999973 -0.002293
vn 0.005544 0.999983 0.001788
vn 0.007003 0.999973 -0.002293
vn 0.395596 0.872289 -0.287430
vn 0.395612 0.872283 -0.287426
vn 0.395612 0.872283 -0.287426
vn 0.006793 0.999933 -0.009394
vn 0.007003 0.999973 -0.002293
vn 0.006793 0.999933 -0.009394
vn 0.151098 0.872286 -0.465066
vn -0.001028 0.882419 -0.470464
vn -0.001028 0.882419 -0.470464
vn -0.000060 0.999631 -0.027161
vn 0.006793 0.999933 -0.009394
vn -0.000060 0.999631 -0.027161
vn -0.001028 0.882419 -0.470464
vn -0.277361 0.882419 -0.380010
vn -0.277361 0.882419 -0.380010
vn -0.005074 0.999963 -0.006952
vn -0.000060 0.999631 -0.027161
vn -0.005074 0.999963 -0.006952
vn -0.277361 0.882419 -0.380010
vn -0.447760 0.882417 -0.144402
vn -0.447760 0.882417 -0.144402
vn -0.025850 0.999631 -0.008336
vn -0.005074 0.999963 -0.006952
vn -0.005074 0.999963 -0.006952
vn -0.025850 0.999631 -0.008336
vn -0.011017 0.999933 0.003607
vn -0.005074 0.999963 -0.006952
vn -0.011017 0.999933 0.003607
vn -0.004318 0.999973 0.005971
vn -0.005074 0.999963 -0.006952
vn -0.004318 0.999973 0.005971
vn 0.000013 0.999983 0.005825
vn -0.005074 0.999963 -0.006952
vn 0.000013 0.999983 0.005825
vn 0.003190 0.999985 0.004372
vn -0.005074 0.999963 -0.006952
vn 0.003190 0.999985 0.004372
vn 0.005544 0.999983 0.001788
vn -0.005074 0.999963 -0.006952
vn 0.005544 0.999983 0.001788
vn 0.007003 0.999973 -0.002293
vn -0.005074 0.999963 -0.006952
vn 0.007003 0.999973 -0.002293
vn 0.006793 0.999933 -0.009394
vn 0.006793 0.999933 -0.009394
vn -0.000060 0.999631 -0.027161
vn -0.005074 0.999963 -0.006952
vn -0.025850 0.999631 -0.008336
vn -0.447760 0.882417 -0.144402
vn -0.447122 0.882417 0.146364
vn -0.447122 0.882417 0.146364
vn -0.011017 0.999933 0.003607
vn -0.025850 0.999631 -0.008336
vn -0.011017 0.999933 0.003607
vn -0.447122 0.882417 0.146364
vn -0.275696 0.882417 0.381224
vn -0.275696 0.882417 0.381224
vn -0.004318 0.999973 0.005971
vn -0.011017 0.999933 0.003607
vn -0.004318 0.999973 0.005971
vn -0.275696 0.882417 0.381224
vn 0.001028 0.882417 0.470468
vn 0.001028 0.882417 0.470468
vn 0.000013 0.999983 0.005825
vn -0.004318 0.999973 0.005971
vn 0.000013 0.999983 0.005825
vn 0.001028 0.882417 0.470468
vn 0.277362 0.882418 0.380012
vn 0.277362 0.882418 0.380012
vn 0.003190 0.999985 0.004372
vn 0.000013 0.999983 0.005825
vn 0.003190 0.999985 0.004372
vn 0.277362 0.882418 0.380012
vn 0.447758 0.882418 0.144401
vn 0.447758 0.882418 0.144401
vn 0.005544 0.999983 0.001788
vn 0.003190 0.999985 0.004372
vn 0.005544 0.999983 0.001788
vn 0.447758 0.882418 0.144401
vn 0.489008 0.872279 0.000000
vn 0.489008 0.872279 0.000000
vn 0.007003 0.999973 -0.002293
vn 0.005544 0.999983 0.001788
vn 0.007003 0.999973 -0.002293
vn 0.395596 0.872289 -0.287430
vn 0.395612 0.872283 -0.287426
vn 0.395612 0.872283 -0.287426
vn 0.006793 0.999933 -0.009394
vn 0.007003 0.999973 -0.002293
vn 0.006793 0.999933 -0.009394
vn 0.151098 0.872286 -0.465066
vn -0.001028 0.882419 -0.470464
vn -0.001028 0.882419 -0.470464
vn -0.000060 0.999631 -0.027161
vn 0.006793 0.999933 -0.009394
vn -0.000060 0.999631 -0.027161
vn -0.001028 0.882419 -0.470464
vn -0.277361 0.882419 -0.380010
vn -0.277361 0.882419 -0.380010
vn -0.005074 0.999963 -0.006952
vn -0.000060 0.999631 -0.027161
vn -0.005074 0.999963 -0.006952
vn -0.277361 0.882419 -0.380010
vn -0.447760 0.882417 -0.144402
vn -0.447760 0.882417 -0.144402
vn -0.025850 0.999631 -0.008336
vn -0.005074 0.999963 -0.006952
s off
g tapalom1:Cylinder_00
usemtl tapalom1:phong7SG
f 1//1 2//2 3//3
f 1//4 3//5 4//6
f 1//7 4//8 5//9
f 1//10 5//11 6//12
f 1//13 6//14 7//15
f 1//16 7//17 8//18
f 1//19 8//20 9//21
f 9//22 10//23 1//24
f 2//25 11//26 12//27
f 12//28 3//29 2//30
f 3//31 12//32 13//33
f 13//34 4//35 3//36
f 4//37 13//38 14//39
f 14//40 5//41 4//42
f 5//43 14//44 15//45
f 15//46 6//47 5//48
f 6//49 15//50 16//51
f 16//52 7//53 6//54
f 7//55 16//56 17//57
f 17//58 8//59 7//60
f 8//61 18//62 19//63
f 19//64 9//65 8//66
f 9//67 20//68 21//69
f 21//70 10//71 9//72
f 10//73 21//74 22//75
f 22//76 1//77 10//78
f 1//79 22//80 11//81
f 11//82 2//83 1//84
f 23//85 24//86 25//87
f 23//88 25//89 26//90
f 23//91 26//92 27//93
f 23//94 27//95 28//96
f 23//97 28//98 29//99
f 23//100 29//101 30//102
f 23//103 30//104 31//105
f 31//106 32//107 23//108
f 24//109 33//110 34//111
f 34//112 25//113 24//114
f 25//115 34//116 35//117
f 35//118 26//119 25//120
f 26//121 35//122 36//123
f 36//124 27//125 26//126
f 27//127 36//128 37//129
f 37//130 28//131 27//132
f 28//133 37//134 38//135
f 38//136 29//137 28//138
f 29//139 38//140 39//141
f 39//142 30//143 29//144
f 30//145 40//146 41//147
f 41//148 31//149 30//150
f 31//151 42//152 43//153
f 43//154 32//155 31//156
f 32//157 43//158 44//159
f 44//160 23//161 32//162
f 23//163 44//164 33//165
f 33//166 24//167 23//168
g default
v -19.778702 2.478073 0.280701
v -19.825899 2.478073 0.345661
v -19.825897 2.478073 0.425957
v -19.778702 2.478073 0.490917
v -19.702335 2.478073 0.515729
v -19.625973 2.478073 0.490917
v -19.578775 2.478073 0.425957
v -19.578775 2.478073 0.345661
v -19.625971 2.478073 0.280701
v -19.702337 2.478073 0.255889
v -19.827610 2.477112 0.345105
v -19.827612 2.477112 0.426513
v -19.779760 2.477112 0.492373
v -19.702337 2.477112 0.517530
v -19.624914 2.477112 0.492373
v -19.577063 2.477112 0.426513
v -19.577063 2.477112 0.345105
v -19.577063 2.477112 0.345105
v -19.624912 2.477112 0.279244
v -19.624912 2.477112 0.279244
v -19.702337 2.477112 0.254087
v -19.779760 2.477112 0.279244
v -19.778702 2.478073 0.280701
v -19.825899 2.478073 0.345661
v -19.825897 2.478073 0.425957
v -19.778702 2.478073 0.490917
v -19.702335 2.478073 0.515729
v -19.625973 2.478073 0.490917
v -19.578775 2.478073 0.425957
v -19.578775 2.478073 0.345661
v -19.625971 2.478073 0.280701
v -19.702337 2.478073 0.255889
v -19.827610 2.477112 0.345105
v -19.827612 2.477112 0.426513
v -19.779760 2.477112 0.492373
v -19.702337 2.477112 0.517530
v -19.624914 2.477112 0.492373
v -19.577063 2.477112 0.426513
v -19.577063 2.477112 0.345105
v -19.577063 2.477112 0.345105
v -19.624912 2.477112 0.279244
v -19.624912 2.477112 0.279244
v -19.702337 2.477112 0.254087
v -19.779760 2.477112 0.279244
vn -0.005074 0.999963 -0.006952
vn -0.025850 0.999631 -0.008336
vn -0.011017 0.999933 0.003607
vn -0.005074 0.999963 -0.006952
vn -0.011017 0.999933 0.003607
vn -0.004318 0.999973 0.005971
vn -0.005074 0.999963 -0.006952
vn -0.004318 0.999973 0.005971
vn 0.000013 0.999983 0.005825
vn -0.005074 0.999963 -0.006952
vn 0.000013 0.999983 0.005825
vn 0.003190 0.999985 0.004372
vn -0.005074 0.999963 -0.006952
vn 0.003190 0.999985 0.004372
vn 0.005544 0.999983 0.001788
vn -0.005074 0.999963 -0.006952
vn 0.005544 0.999983 0.001788
vn 0.007003 0.999973 -0.002293
vn -0.005074 0.999963 -0.006952
vn 0.007003 0.999973 -0.002293
vn 0.006793 0.999933 -0.009394
vn 0.006793 0.999933 -0.009394
vn -0.000060 0.999631 -0.027161
vn -0.005074 0.999963 -0.006952
vn -0.025850 0.999631 -0.008336
vn -0.447760 0.882417 -0.144402
vn -0.447122 0.882417 0.146364
vn -0.447122 0.882417 0.146364
vn -0.011017 0.999933 0.003607
vn -0.025850 0.999631 -0.008336
vn -0.011017 0.999933 0.003607
vn -0.447122 0.882417 0.146364
vn -0.275696 0.882417 0.381224
vn -0.275696 0.882417 0.381224
vn -0.004318 0.999973 0.005971
vn -0.011017 0.999933 0.003607
vn -0.004318 0.999973 0.005971
vn -0.275696 0.882417 0.381224
vn 0.001028 0.882417 0.470468
vn 0.001028 0.882417 0.470468
vn 0.000013 0.999983 0.005825
vn -0.004318 0.999973 0.005971
vn 0.000013 0.999983 0.005825
vn 0.001028 0.882417 0.470468
vn 0.277362 0.882418 0.380012
vn 0.277362 0.882418 0.380012
vn 0.003190 0.999985 0.004372
vn 0.000013 0.999983 0.005825
vn 0.003190 0.999985 0.004372
vn 0.277362 0.882418 0.380012
vn 0.447758 0.882418 0.144401
vn 0.447758 0.882418 0.144401
vn 0.005544 0.999983 0.001788
vn 0.003190 0.999985 0.004372
vn 0.005544 0.999983 0.001788
vn 0.447758 0.882418 0.144401
vn 0.489008 0.872279 0.000000
vn 0.489008 0.872279 0.000000
vn 0.007003 0.999973 -0.002293
vn 0.005544 0.999983 0.001788
vn 0.007003 0.999973 -0.002293
vn 0.395596 0.872289 -0.287430
vn 0.395612 0.872283 -0.287426
vn 0.395612 0.872283 -0.287426
vn 0.006793 0.999933 -0.009394
vn 0.007003 0.999973 -0.002293
vn 0.006793 0.999933 -0.009394
vn 0.151098 0.872286 -0.465066
vn -0.001028 0.882419 -0.470464
vn -0.001028 0.882419 -0.470464
vn -0.000060 0.999631 -0.027161
vn 0.006793 0.999933 -0.009394
vn -0.000060 0.999631 -0.027161
vn -0.001028 0.882419 -0.470464
vn -0.277361 0.882419 -0.380010
vn -0.277361 0.882419 -0.380010
vn -0.005074 0.999963 -0.006952
vn -0.000060 0.999631 -0.027161
vn -0.005074 0.999963 -0.006952
vn -0.277361 0.882419 -0.380010
vn -0.447760 0.882417 -0.144402
vn -0.447760 0.882417 -0.144402
vn -0.025850 0.999631 -0.008336
vn -0.005074 0.999963 -0.006952
vn -0.005074 0.999963 -0.006952
vn -0.025850 0.999631 -0.008336
vn -0.011017 0.999933 0.003607
vn -0.005074 0.999963 -0.006952
vn -0.011017 0.999933 0.003607
vn -0.004318 0.999973 0.005971
vn -0.005074 0.999963 -0.006952
vn -0.004318 0.999973 0.005971
vn 0.000013 0.999983 0.005825
vn -0.005074 0.999963 -0.006952
vn 0.000013 0.999983 0.005825
vn 0.003190 0.999985 0.004372
vn -0.005074 0.999963 -0.006952
vn 0.003190 0.999985 0.004372
vn 0.005544 0.999983 0.001788
vn -0.005074 0.999963 -0.006952
vn 0.005544 0.999983 0.001788
vn 0.007003 0.999973 -0.002293
vn -0.005074 0.999963 -0.006952
vn 0.007003 0.999973 -0.002293
vn 0.006793 0.999933 -0.009394
vn 0.006793 0.999933 -0.009394
vn -0.000060 0.999631 -0.027161
vn -0.005074 0.999963 -0.006952
vn -0.025850 0.999631 -0.008336
vn -0.447760 0.882417 -0.144402
vn -0.447122 0.882417 0.146364
vn -0.447122 0.882417 0.146364
vn -0.011017 0.999933 0.003607
vn -0.025850 0.999631 -0.008336
vn -0.011017 0.999933 0.003607
vn -0.447122 0.882417 0.146364
vn -0.275696 0.882417 0.381224
vn -0.275696 0.882417 0.381224
vn -0.004318 0.999973 0.005971
vn -0.011017 0.999933 0.003607
vn -0.004318 0.999973 0.005971
vn -0.275696 0.882417 0.381224
vn 0.001028 0.882417 0.470468
vn 0.001028 0.882417 0.470468
vn 0.000013 0.999983 0.005825
vn -0.004318 0.999973 0.005971
vn 0.000013 0.999983 0.005825
vn 0.001028 0.882417 0.470468
vn 0.277362 0.882418 0.380012
vn 0.277362 0.882418 0.380012
vn 0.003190 0.999985 0.004372
vn 0.000013 0.999983 0.005825
vn 0.003190 0.999985 0.004372
vn 0.277362 0.882418 0.380012
vn 0.447758 0.882418 0.144401
vn 0.447758 0.882418 0.144401
vn 0.005544 0.999983 0.001788
vn 0.003190 0.999985 0.004372
vn 0.005544 0.999983 0.001788
vn 0.447758 0.882418 0.144401
vn 0.489008 0.872279 0.000000
vn 0.489008 0.872279 0.000000
vn 0.007003 0.999973 -0.002293
vn 0.005544 0.999983 0.001788
vn 0.007003 0.999973 -0.002293
vn 0.395596 0.872289 -0.287430
vn 0.395612 0.872283 -0.287426
vn 0.395612 0.872283 -0.287426
vn 0.006793 0.999933 -0.009394
vn 0.007003 0.999973 -0.002293
vn 0.006793 0.999933 -0.009394
vn 0.151098 0.872286 -0.465066
vn -0.001028 0.882419 -0.470464
vn -0.001028 0.882419 -0.470464
vn -0.000060 0.999631 -0.027161
vn 0.006793 0.999933 -0.009394
vn -0.000060 0.999631 -0.027161
vn -0.001028 0.882419 -0.470464
vn -0.277361 0.882419 -0.380010
vn -0.277361 0.882419 -0.380010
vn -0.005074 0.999963 -0.006952
vn -0.000060 0.999631 -0.027161
vn -0.005074 0.999963 -0.006952
vn -0.277361 0.882419 -0.380010
vn -0.447760 0.882417 -0.144402
vn -0.447760 0.882417 -0.144402
vn -0.025850 0.999631 -0.008336
vn -0.005074 0.999963 -0.006952
s off
g tapalom1:Cylinder_00
f 45//169 46//170 47//171
f 45//172 47//173 48//174
f 45//175 48//176 49//177
f 45//178 49//179 50//180
f 45//181 50//182 51//183
f 45//184 51//185 52//186
f 45//187 52//188 53//189
f 53//190 54//191 45//192
f 46//193 55//194 56//195
f 56//196 47//197 46//198
f 47//199 56//200 57//201
f 57//202 48//203 47//204
f 48//205 57//206 58//207
f 58//208 49//209 48//210
f 49//211 58//212 59//213
f 59//214 50//215 49//216
f 50//217 59//218 60//219
f 60//220 51//221 50//222
f 51//223 60//224 61//225
f 61//226 52//227 51//228
f 52//229 62//230 63//231
f 63//232 53//233 52//234
f 53//235 64//236 65//237
f 65//238 54//239 53//240
f 54//241 65//242 66//243
f 66//244 45//245 54//246
f 45//247 66//248 55//249
f 55//250 46//251 45//252
f 67//253 68//254 69//255
f 67//256 69//257 70//258
f 67//259 70//260 71//261
f 67//262 71//263 72//264
f 67//265 72//266 73//267
f 67//268 73//269 74//270
f 67//271 74//272 75//273
f 75//274 76//275 67//276
f 68//277 77//278 78//279
f 78//280 69//281 68//282
f 69//283 78//284 79//285
f 79//286 70//287 69//288
f 70//289 79//290 80//291
f 80//292 71//293 70//294
f 71//295 80//296 81//297
f 81//298 72//299 71//300
f 72//301 81//302 82//303
f 82//304 73//305 72//306
f 73//307 82//308 83//309
f 83//310 74//311 73//312
f 74//313 84//314 85//315
f 85//316 75//317 74//318
f 75//319 86//320 87//321
f 87//322 76//323 75//324
f 76//325 87//326 88//327
f 88//328 67//329 76//330
f 67//331 88//332 77//333
f 77//334 68//335 67//336
