# This file uses centimeters as units for non-parametric coordinates.

mtllib puerta2.mtl
g default
v -0.032650 -0.966188 1.252868
v 0.039799 -0.966188 1.252868
v -0.032650 0.912355 1.252868
v 0.039799 0.912355 1.252868
v -0.032650 0.912355 -0.001289
v 0.039799 0.912355 -0.001289
v -0.032650 -0.966188 -0.001289
v 0.039799 -0.966188 -0.001289
vt 0.375000 0.000000
vt 0.625000 0.000000
vt 0.375000 0.250000
vt 0.625000 0.250000
vt 0.375000 0.500000
vt 0.625000 0.500000
vt 0.375000 0.750000
vt 0.625000 0.750000
vt 0.375000 1.000000
vt 0.625000 1.000000
vt 0.000000 -0.000000
vt 1.000000 -0.000000
vt 1.000000 -0.000000
vt 0.000000 -0.000000
vt 0.000000 1.000000
vt 1.000000 1.000000
vt 1.000000 1.000000
vt 0.000000 1.000000
vn 0.000000 0.000000 1.000000
vn 0.000000 0.000000 1.000000
vn 0.000000 0.000000 1.000000
vn 0.000000 0.000000 1.000000
vn 0.000000 1.000000 0.000000
vn 0.000000 1.000000 0.000000
vn 0.000000 1.000000 0.000000
vn 0.000000 1.000000 0.000000
vn 0.000000 0.000000 -1.000000
vn 0.000000 0.000000 -1.000000
vn 0.000000 0.000000 -1.000000
vn 0.000000 0.000000 -1.000000
vn 0.000000 -1.000000 0.000000
vn 0.000000 -1.000000 0.000000
vn 0.000000 -1.000000 0.000000
vn 0.000000 -1.000000 0.000000
vn 1.000000 0.000000 0.000000
vn 1.000000 0.000000 0.000000
vn 1.000000 0.000000 0.000000
vn 1.000000 0.000000 0.000000
vn -1.000000 0.000000 0.000000
vn -1.000000 0.000000 0.000000
vn -1.000000 0.000000 0.000000
vn -1.000000 0.000000 0.000000
s 1
g pCube6
usemtl initialShadingGroup
f 1/1/1 2/2/2 3/3/3
f 3/3/3 2/2/2 4/4/4
s 2
f 3/3/5 4/4/6 5/5/7
f 5/5/7 4/4/6 6/6/8
s 3
f 5/5/9 6/6/10 7/7/11
f 7/7/11 6/6/10 8/8/12
s 4
f 7/7/13 8/8/14 1/9/15
f 1/9/15 8/8/14 2/10/16
s 5
usemtl lambert77SG
f 2/11/17 8/12/18 4/18/19
f 4/18/19 8/12/18 6/17/20
s 6
f 7/13/21 1/14/22 5/16/23
f 5/16/23 1/14/22 3/15/24
g default
v -0.032650 -0.966188 1.252868
v 0.039799 -0.966188 1.252868
v -0.032650 0.912355 1.252868
v 0.039799 0.912355 1.252868
v -0.032650 0.912355 -0.001289
v 0.039799 0.912355 -0.001289
v -0.032650 -0.966188 -0.001289
v 0.039799 -0.966188 -0.001289
vt 0.375000 0.000000
vt 0.625000 0.000000
vt 0.375000 0.250000
vt 0.625000 0.250000
vt 0.375000 0.500000
vt 0.625000 0.500000
vt 0.375000 0.750000
vt 0.625000 0.750000
vt 0.375000 1.000000
vt 0.625000 1.000000
vt 0.000000 -0.000000
vt 1.000000 -0.000000
vt 1.000000 -0.000000
vt 0.000000 -0.000000
vt 0.000000 1.000000
vt 1.000000 1.000000
vt 1.000000 1.000000
vt 0.000000 1.000000
vn 0.000000 0.000000 1.000000
vn 0.000000 0.000000 1.000000
vn 0.000000 0.000000 1.000000
vn 0.000000 0.000000 1.000000
vn 0.000000 1.000000 0.000000
vn 0.000000 1.000000 0.000000
vn 0.000000 1.000000 0.000000
vn 0.000000 1.000000 0.000000
vn 0.000000 0.000000 -1.000000
vn 0.000000 0.000000 -1.000000
vn 0.000000 0.000000 -1.000000
vn 0.000000 0.000000 -1.000000
vn 0.000000 -1.000000 0.000000
vn 0.000000 -1.000000 0.000000
vn 0.000000 -1.000000 0.000000
vn 0.000000 -1.000000 0.000000
vn 1.000000 0.000000 0.000000
vn 1.000000 0.000000 0.000000
vn 1.000000 0.000000 0.000000
vn 1.000000 0.000000 0.000000
vn -1.000000 0.000000 0.000000
vn -1.000000 0.000000 0.000000
vn -1.000000 0.000000 0.000000
vn -1.000000 0.000000 0.000000
s 1
g pCube6
f 9/19/25 10/20/26 11/21/27
f 11/21/27 10/20/26 12/22/28
s 2
f 11/21/29 12/22/30 13/23/31
f 13/23/31 12/22/30 14/24/32
s 3
f 13/23/33 14/24/34 15/25/35
f 15/25/35 14/24/34 16/26/36
s 4
f 15/25/37 16/26/38 9/27/39
f 9/27/39 16/26/38 10/28/40
s 5
f 10/29/41 16/30/42 12/36/43
f 12/36/43 16/30/42 14/35/44
s 6
f 15/31/45 9/32/46 13/34/47
f 13/34/47 9/32/46 11/33/48
